#!OML:ASF I:\Actors\actors\Patient Classification 1\Patient 1\Session 1\Subject1.ASF
:FULLY-SPECIFIED
:DEGREES
1126
root 0.0825714 17.6897 8.23351 21.4771 -8.40024 -6.96867
lowerback 18.0821 -1.59911 6.9412
upperback 7.62941 -0.89403 3.09902
thorax -1.95945 -0.39076 -0.467465
lowerneck 5.91079 -9.42262 -4.69686
upperneck 4.52581 -13.0149 10.2872
head 1.53751 -6.5407 4.1724
rclavicle 3.72721e-015 5.60076e-014
rhumerus -10.6518 52.8208 -41.2195
rradius 141.442
rwrist -33.4735
rhand 62.7254 -38.9028
rfingers 7.12502
rthumb 74.9634 3.45483
lclavicle 3.72721e-015 5.60076e-014
lhumerus -20.6063 -55.2161 63.8681
lradius 141.408
lwrist 26.5227
lhand -4.7068 -38.1989
lfingers 7.12502
lthumb 21.0751 -9.32415
rfemur -25.0223 25.4171 14.6727
rtibia 10.1687
rfoot -9.30723 -21.8989
rtoes -2.54526
lfemur -14.4152 -35.6845 -1.55026
ltibia -1.5029
lfoot -24.2134 52.2225
ltoes 15.0409
1127
root 0.0853051 17.6918 8.24211 21.3934 -8.29865 -7.09547
lowerback 17.9025 -1.45301 7.01838
upperback 7.6996 -0.719827 2.95427
thorax -1.78262 -0.29521 -0.701664
lowerneck 5.09008 -9.26343 -4.44602
upperneck 8.78628 -13.0104 9.0303
head 2.99668 -6.41993 3.56627
rclavicle -6.70898e-015 -3.26752e-014
rhumerus -11.5269 52.1506 -42.6687
rradius 141.421
rwrist -33.6486
rhand 63.9073 -40.5967
rfingers 7.12502
rthumb 74.9725 6.16316
lclavicle -6.70898e-015 -3.26752e-014
lhumerus -19.4683 -55.6539 63.0853
lradius 141.362
lwrist 26.6345
lhand -4.59298 -37.9674
lfingers 7.12502
lthumb 21.1844 -9.10492
rfemur -24.8302 25.3091 14.9448
rtibia 10.1642
rfoot -9.25847 -21.8352
rtoes -2.92466
lfemur -14.2536 -35.6642 -1.50495
ltibia -1.54285
lfoot -24.0356 52.1422
ltoes 15.039
1128
root 0.0882587 17.6932 8.2501 21.2687 -8.2178 -7.20141
lowerback 17.7389 -1.1482 7.40636
upperback 7.7288 -0.29503 2.55522
thorax -1.63746 -0.0661319 -1.42439
lowerneck 4.11904 -9.35557 -3.33023
upperneck 14.0414 -13.3329 7.56795
head 4.28009 -6.39325 2.45755
rclavicle -3.47128e-014 -4.71617e-014
rhumerus -12.2107 51.7905 -43.1763
rradius 141.283
rwrist -34.0164
rhand 63.5174 -40.2622
rfingers 7.12502
rthumb 74.9795 5.04497
lclavicle -3.47128e-014 -4.71617e-014
lhumerus -17.3828 -56.7202 61.2674
lradius 141.328
lwrist 27.0666
lhand -4.68858 -37.8021
lfingers 7.12502
lthumb 21.0926 -8.9293
rfemur -24.6065 25.2498 15.186
rtibia 10.1472
rfoot -9.2728 -21.8033
rtoes -2.94139
lfemur -14.0518 -35.5479 -1.53539
ltibia -1.54524
lfoot -23.9184 51.959
ltoes 15.072
1129
root 0.0914263 17.6952 8.25773 21.1191 -8.23032 -7.22766
lowerback 17.6891 -0.710432 7.93351
upperback 7.61789 0.337373 1.94964
thorax -1.66441 0.264301 -2.47997
lowerneck 1.87414 -9.57821 -2.06019
upperneck 21.586 -13.8822 5.42208
head 6.83102 -6.42134 1.31201
rclavicle 1.54555e-014 -7.85199e-015
rhumerus -14.5942 50.9044 -45.5441
rradius 141.314
rwrist -33.55
rhand 63.7339 -40.1281
rfingers 7.12502
rthumb 74.9768 5.98588
lclavicle 1.54555e-014 -7.85199e-015
lhumerus -14.7806 -58.2494 58.7936
lradius 141.346
lwrist 27.7569
lhand -4.71677 -37.727
lfingers 7.12502
lthumb 21.0655 -8.85117
rfemur -24.3663 25.2279 15.32
rtibia 10.1047
rfoot -9.26654 -21.7702
rtoes -2.59778
lfemur -13.8296 -35.3816 -1.71952
ltibia -1.46882
lfoot -23.7717 51.7616
ltoes 14.9749
1130
root 0.092484 17.7012 8.28205 21.4508 -7.73604 -8.1227
lowerback 17.1707 -0.744831 8.97117
upperback 7.62512 0.400065 2.0148
thorax -1.35392 0.326917 -3.00025
lowerneck -1.32038 -9.3334 -1.55785
upperneck 29.4817 -13.5575 2.56347
head 9.86747 -6.15188 -0.0170365
rclavicle 2.56867e-014 2.01083e-014
rhumerus -14.1766 50.5716 -45.3635
rradius 141.35
rwrist -33.5761
rhand 63.7056 -40.1161
rfingers 7.12502
rthumb 74.9774 5.89253
lclavicle 2.56867e-014 2.01083e-014
lhumerus -13.6998 -58.3129 57.8062
lradius 141.386
lwrist 28.0473
lhand -4.93414 -37.7817
lfingers 7.12502
lthumb 20.8567 -8.8828
rfemur -24.2869 25.1483 16.4993
rtibia 9.92715
rfoot -9.19442 -21.8046
rtoes -2.61271
lfemur -14.1174 -34.4371 -0.571166
ltibia -1.38146
lfoot -22.6171 51.0103
ltoes 13.806
